<?xml version="1.0" encoding="UTF-8" standalone="no"?>
<svg
   xmlns:dc="http://purl.org/dc/elements/1.1/"
   xmlns:cc="http://creativecommons.org/ns#"
   xmlns:rdf="http://www.w3.org/1999/02/22-rdf-syntax-ns#"
   xmlns:svg="http://www.w3.org/2000/svg"
   xmlns="http://www.w3.org/2000/svg"
   xmlns:sodipodi="http://sodipodi.sourceforge.net/DTD/sodipodi-0.dtd"
   xmlns:inkscape="http://www.inkscape.org/namespaces/inkscape"
   viewBox="0 0 512 512"
   id="vector"
   version="1.1"
   sodipodi:docname="lumitrol_icon.svg"
   inkscape:export-filename="/home/hadim/Documents/Code/Misc/lumitrol/icons/lumitrol_icon.png"
   inkscape:export-xdpi="96"
   inkscape:export-ydpi="96"
   inkscape:version="0.92.4 (5da689c313, 2019-01-14)"
   width="512"
   height="512">
  <metadata
     id="metadata8">
    <rdf:RDF>
      <cc:Work
         rdf:about="">
        <dc:format>image/svg+xml</dc:format>
        <dc:type
           rdf:resource="http://purl.org/dc/dcmitype/StillImage" />
        <dc:title></dc:title>
      </cc:Work>
    </rdf:RDF>
  </metadata>
  <defs
     id="defs6" />
  <sodipodi:namedview
     pagecolor="#ffffff"
     bordercolor="#8d8d8d"
     borderopacity="1"
     objecttolerance="10"
     gridtolerance="10"
     guidetolerance="10"
     inkscape:pageopacity="1"
     inkscape:pageshadow="2"
     inkscape:window-width="2194"
     inkscape:window-height="1156"
     id="namedview4"
     showgrid="false"
     inkscape:zoom="1.0535714"
     inkscape:cx="138.00825"
     inkscape:cy="240.88978"
     inkscape:window-x="146"
     inkscape:window-y="105"
     inkscape:window-maximized="0"
     inkscape:current-layer="vector"
     inkscape:showpageshadow="false"
     fit-margin-top="20"
     fit-margin-left="20"
     fit-margin-right="20"
     fit-margin-bottom="20" />
  <path
     id="path"
     d="m 263.53108,244.79096 c 0,-4.72563 -3.6755,-8.40113 -8.40113,-8.40113 -23.10311,0 -42.00565,18.90255 -42.00565,42.00565 0,4.72564 3.67549,8.40113 8.40112,8.40113 4.72564,0 8.40113,-3.67549 8.40113,-8.40113 0,-13.91437 11.28903,-25.20339 25.2034,-25.20339 4.72563,0 8.40113,-3.67549 8.40113,-8.40113 z m 58.8079,34.12959 c 0,37.01748 -30.19156,67.20904 -67.20903,67.20904 -37.01748,0 -67.20904,-30.19156 -67.20904,-67.20904 0,-37.01748 30.19156,-67.20904 67.20904,-67.20904 37.01747,0 67.20903,30.19156 67.20903,67.20904 z M 53.502822,429.61582 H 456.75706 V 396.0113 H 53.502822 Z M 355.94351,278.92055 c 0,-55.65749 -45.15608,-100.81356 -100.81356,-100.81356 -55.65749,0 -100.81356,45.15607 -100.81356,100.81356 0,55.65749 45.15607,100.81356 100.81356,100.81356 55.65748,0 100.81356,-45.15607 100.81356,-100.81356 z M 87.107343,110.37288 H 187.92091 V 76.768359 H 87.107343 Z M 53.502822,160.77967 H 456.75706 V 93.570619 H 239.37782 L 222.57557,127.17514 H 53.502822 Z M 490.36158,93.570619 V 429.61582 c 0,18.64001 -14.96451,33.60452 -33.60452,33.60452 H 53.502822 c -18.640004,0 -33.604517,-14.96451 -33.604517,-33.60452 V 93.570619 c 0,-18.64001 14.964513,-33.604522 33.604517,-33.604522 H 456.75706 c 18.64001,0 33.60452,14.964512 33.60452,33.604522 z"
     inkscape:connector-curvature="0"
     style="fill:#000000;stroke-width:1.05014122" />
</svg>
